<svg xmlns="http://www.w3.org/2000/svg" width="28.5" height="28.5" viewBox="0 0 28.5 28.5">
  <path id="Path_1964" data-name="Path 1964" d="M13.08,15.163a16.714,16.714,0,0,0,6.257,6.257l1.4-1.96a1.583,1.583,0,0,1,2.049-.469,18.085,18.085,0,0,0,7.256,2.16A1.583,1.583,0,0,1,31.5,22.73v7.065a1.583,1.583,0,0,1-1.422,1.575A24.556,24.556,0,0,1,3.13,4.422,1.583,1.583,0,0,1,4.705,3H11.77a1.583,1.583,0,0,1,1.579,1.458,18.085,18.085,0,0,0,2.16,7.256,1.583,1.583,0,0,1-.469,2.049l-1.96,1.4Zm-3.993-1.04,3.008-2.149a21.232,21.232,0,0,1-1.737-5.808H6.183c-.01.263-.014.527-.014.792A21.372,21.372,0,0,0,27.542,28.333c.264,0,.529,0,.792-.016V24.142a21.233,21.233,0,0,1-5.808-1.737l-2.149,3.008a19.7,19.7,0,0,1-2.514-1.187l-.092-.052a19.88,19.88,0,0,1-7.445-7.445l-.052-.092a19.7,19.7,0,0,1-1.187-2.514Z" transform="translate(-3 -3)" fill="#fff"/>
</svg>
