<svg id="Layer_1" enable-background="new 0 0 511.999 511.999" height="90px" viewBox="0 0 511.999 511.999" width="90px" xmlns="http://www.w3.org/2000/svg"><g><path fill="#fff" d="m472.227 0v31.616c-44.547 58.481-114.523 93.268-188.193 93.268h-214.258v41.417h-60.004v130.945h60.004v41.418h58.695v173.334h108.835v-173.333h46.728c73.671 0 143.646 34.786 188.193 93.267v31.616h30v-463.548zm-432.455 267.247v-70.945h30.004v70.945zm60.004-112.363h166.225v153.781h-166.225zm107.53 327.115h-48.836v-143.334h48.835v143.334zm197.484-144.413c-33.677-17.113-71.053-26.927-108.789-28.646v-154.33c37.736-1.719 75.112-11.534 108.789-28.646 24.858-12.632 47.677-29.253 67.438-48.934v309.49c-19.762-19.681-42.58-36.302-67.438-48.934z"/><path fill="#fff" d="m123.975 218.387h116.021v30h-116.021z" transform="matrix(.6 -.8 .8 .6 -113.913 239.075)"/><path fill="#fff" d="m129.275 179.678h30v30.002h-30z"/><path fill="#fff" d="m206.502 253.869h30v30.002h-30z"/></g></svg>